<mxfile host="app.diagrams.net" modified="2024-01-17T09:12:10.413Z" agent="Mozilla/5.0 (Windows NT 10.0; Win64; x64) AppleWebKit/537.36 (KHTML, like Gecko) Chrome/120.0.0.0 Safari/537.36 Edg/120.0.0.0" version="21.7.5" etag="gUGXa1s8PPsh0EabFTwA" type="github">
  <diagram name="第 1 页" id="eEQOsM0IrTB7rbdkbBUE">
    <mxGraphModel>
      <root>
        <mxCell id="0" />
        <mxCell id="1" parent="0" />
      </root>
    </mxGraphModel>
  </diagram>
</mxfile>
